<?xml version="1.0" standalone="no"?>
<!DOCTYPE svg PUBLIC "-//W3C//DTD SVG 20010904//EN"
 "http://www.w3.org/TR/2001/REC-SVG-20010904/DTD/svg10.dtd">
<svg version="1.0" xmlns="http://www.w3.org/2000/svg"
 width="145" height="58" viewBox="0 0 145.000000 58.000000"
 preserveAspectRatio="xMidYMid meet">
<metadata>
Created by potrace 1.16, written by Peter Selinger 2001-2019
</metadata>
<g transform="translate(0.000000,58.000000) scale(0.100000,-0.100000)"
fill="#ffffff" stroke="none">
<path d="M562 430 c-64 -27 -53 -99 21 -136 90 -45 104 -67 67 -104 -36 -36
-104 -19 -123 31 -3 11 -8 11 -17 3 -9 -9 -5 -19 17 -43 55 -63 163 -33 163
45 0 37 -13 50 -84 84 -54 26 -70 56 -46 86 17 19 59 18 82 -3 12 -11 22 -13
28 -7 26 26 -63 63 -108 44z"/>
<path d="M30 290 l0 -140 70 0 c63 0 74 3 97 26 31 31 27 88 -8 115 -19 14
-19 17 -5 22 11 4 16 19 16 46 0 54 -25 71 -107 71 l-63 0 0 -140z m131 101
c20 -16 22 -23 14 -47 -9 -26 -15 -29 -63 -32 l-52 -3 0 50 0 51 39 0 c23 0
48 -8 62 -19z m17 -123 c40 -40 -4 -98 -75 -98 l-43 0 0 55 0 55 53 0 c29 0
58 -5 65 -12z"/>
<path d="M342 403 c-21 -51 -92 -246 -92 -249 0 -20 31 4 40 31 l12 35 62 0
c62 0 62 0 75 -35 7 -19 19 -35 26 -35 11 0 7 19 -16 83 -17 45 -40 108 -52
140 -23 63 -39 71 -55 30z m67 -140 c1 -9 -15 -13 -48 -13 l-48 0 25 72 26 71
22 -59 c13 -32 23 -65 23 -71z"/>
<path d="M750 290 l0 -140 90 0 c53 0 90 4 90 10 0 6 -33 10 -80 10 l-80 0 0
55 0 55 76 0 c56 0 75 3 71 13 -2 8 -27 12 -73 13 l-69 1 -3 52 -3 51 80 0
c47 0 81 4 81 10 0 6 -37 10 -90 10 l-90 0 0 -140z"/>
<path d="M1130 290 l0 -140 35 0 35 0 0 60 0 60 55 0 c52 0 55 1 55 25 0 24
-3 25 -55 25 -55 0 -55 0 -55 31 l0 30 63 -2 c61 -3 62 -2 65 24 l3 27 -100 0
-101 0 0 -140z"/>
<path d="M1360 290 l0 -140 30 0 30 0 0 140 0 140 -30 0 -30 0 0 -140z"/>
<path d="M1023 353 c4 -3 10 -3 14 0 3 4 0 7 -7 7 -7 0 -10 -3 -7 -7z"/>
<path d="M979 333 c-13 -16 -12 -17 4 -4 9 7 17 15 17 17 0 8 -8 3 -21 -13z"/>
<path d="M1060 346 c0 -2 8 -10 18 -17 15 -13 16 -12 3 4 -13 16 -21 21 -21
13z"/>
<path d="M1020 290 c0 -5 5 -10 10 -10 6 0 10 5 10 10 0 6 -4 10 -10 10 -5 0
-10 -4 -10 -10z"/>
<path d="M970 256 c0 -2 8 -10 18 -17 15 -13 16 -12 3 4 -13 16 -21 21 -21 13z"/>
<path d="M1069 243 c-13 -16 -12 -17 4 -4 16 13 21 21 13 21 -2 0 -10 -8 -17
-17z"/>
<path d="M1023 223 c4 -3 10 -3 14 0 3 4 0 7 -7 7 -7 0 -10 -3 -7 -7z"/>
</g>
</svg>
